<svg width="447" height="193" viewBox="0 0 447 193" fill="none" xmlns="http://www.w3.org/2000/svg">
<rect x="79" y="77" width="57" height="57" rx="28.5" fill="#E41919"/>
<path d="M69.632 51.656V66.12H45.824V141H27.904V66.12H4.096V51.656H69.632ZM78.099 105.288C78.099 98.12 79.507 91.7627 82.323 86.216C85.2243 80.6693 89.107 76.4027 93.971 73.416C98.9203 70.4293 104.424 68.936 110.483 68.936C115.774 68.936 120.382 70.0027 124.307 72.136C128.318 74.2693 131.518 76.9573 133.907 80.2V70.088H151.955V141H133.907V130.632C131.603 133.96 128.403 136.733 124.307 138.952C120.296 141.085 115.646 142.152 110.355 142.152C104.382 142.152 98.9203 140.616 93.971 137.544C89.107 134.472 85.2243 130.163 82.323 124.616C79.507 118.984 78.099 112.541 78.099 105.288ZM133.907 105.544C133.907 101.192 133.054 97.48 131.347 94.408C129.64 91.2507 127.336 88.8613 124.435 87.24C121.534 85.5333 118.419 84.68 115.091 84.68C111.763 84.68 108.691 85.4907 105.875 87.112C103.059 88.7333 100.755 91.1227 98.963 94.28C97.2563 97.352 96.403 101.021 96.403 105.288C96.403 109.555 97.2563 113.309 98.963 116.552C100.755 119.709 103.059 122.141 105.875 123.848C108.776 125.555 111.848 126.408 115.091 126.408C118.419 126.408 121.534 125.597 124.435 123.976C127.336 122.269 129.64 119.88 131.347 116.808C133.054 113.651 133.907 109.896 133.907 105.544ZM196.593 142.152C190.79 142.152 185.585 141.128 180.977 139.08C176.369 136.947 172.7 134.088 169.969 130.504C167.324 126.92 165.873 122.952 165.617 118.6H183.665C184.006 121.331 185.329 123.592 187.633 125.384C190.022 127.176 192.966 128.072 196.465 128.072C199.878 128.072 202.524 127.389 204.401 126.024C206.364 124.659 207.345 122.909 207.345 120.776C207.345 118.472 206.15 116.765 203.761 115.656C201.457 114.461 197.745 113.181 192.625 111.816C187.334 110.536 182.982 109.213 179.569 107.848C176.241 106.483 173.34 104.392 170.865 101.576C168.476 98.76 167.281 94.9627 167.281 90.184C167.281 86.2587 168.39 82.6747 170.609 79.432C172.913 76.1893 176.156 73.6293 180.337 71.752C184.604 69.8747 189.596 68.936 195.313 68.936C203.761 68.936 210.502 71.0693 215.537 75.336C220.572 79.5173 223.345 85.192 223.857 92.36H206.705C206.449 89.544 205.254 87.3253 203.121 85.704C201.073 83.9973 198.3 83.144 194.801 83.144C191.558 83.144 189.041 83.7413 187.249 84.936C185.542 86.1307 184.689 87.7947 184.689 89.928C184.689 92.3173 185.884 94.152 188.273 95.432C190.662 96.6267 194.374 97.864 199.409 99.144C204.529 100.424 208.753 101.747 212.081 103.112C215.409 104.477 218.268 106.611 220.657 109.512C223.132 112.328 224.412 116.083 224.497 120.776C224.497 124.872 223.345 128.541 221.041 131.784C218.822 135.027 215.58 137.587 211.313 139.464C207.132 141.256 202.225 142.152 196.593 142.152ZM260.071 84.808V119.112C260.071 121.501 260.626 123.251 261.735 124.36C262.93 125.384 264.892 125.896 267.623 125.896H275.943V141H264.679C249.575 141 242.023 133.661 242.023 118.984V84.808H233.575V70.088H242.023V52.552H260.071V70.088H275.943V84.808H260.071ZM354.752 104.008C354.752 106.568 354.581 108.872 354.24 110.92H302.4C302.827 116.04 304.619 120.051 307.776 122.952C310.933 125.853 314.816 127.304 319.424 127.304C326.08 127.304 330.816 124.445 333.632 118.728H352.96C350.912 125.555 346.987 131.187 341.184 135.624C335.381 139.976 328.256 142.152 319.808 142.152C312.981 142.152 306.837 140.659 301.376 137.672C296 134.6 291.776 130.291 288.704 124.744C285.717 119.197 284.224 112.797 284.224 105.544C284.224 98.2053 285.717 91.7627 288.704 86.216C291.691 80.6693 295.872 76.4027 301.248 73.416C306.624 70.4293 312.811 68.936 319.808 68.936C326.549 68.936 332.565 70.3867 337.856 73.288C343.232 76.1893 347.371 80.328 350.272 85.704C353.259 90.9947 354.752 97.096 354.752 104.008ZM336.192 98.888C336.107 94.28 334.443 90.6107 331.2 87.88C327.957 85.064 323.989 83.656 319.296 83.656C314.859 83.656 311.104 85.0213 308.032 87.752C305.045 90.3973 303.211 94.1093 302.528 98.888H336.192Z" fill="#E41919"/>
<path d="M385.752 51.656V141H367.832V51.656H385.752ZM424.321 84.808V119.112C424.321 121.501 424.876 123.251 425.985 124.36C427.18 125.384 429.142 125.896 431.873 125.896H440.193V141H428.929C413.825 141 406.273 133.661 406.273 118.984V84.808H397.825V70.088H406.273V52.552H424.321V70.088H440.193V84.808H424.321Z" fill="#E5E5E5"/>
</svg>
