<svg width="48" height="48" viewBox="0 0 48 48" fill="none" xmlns="http://www.w3.org/2000/svg">
<path d="M24.0001 4.05713C10.745 4.05713 0 14.8022 0 28.0572C0 33.8331 2.04146 39.1324 5.44093 43.2736C5.96539 39.0742 10.1597 35.5225 16.0411 33.8405C18.1898 35.8425 20.9653 37.0572 23.9999 37.0572C26.9632 37.0572 29.6843 35.9037 31.8111 33.9856C37.7434 35.8146 41.8476 39.5738 41.9825 43.9433C45.724 39.7107 48 34.1513 48 28.0572C48 14.8022 37.255 4.05713 24.0001 4.05713ZM24.0001 34.215C22.468 34.215 21.0243 33.7941 19.7424 33.065C16.6533 31.3072 14.5263 27.7101 14.5263 23.557C14.5263 17.6802 18.7761 12.8989 24.0001 12.8989C29.2245 12.8989 33.4739 17.6802 33.4739 23.557C33.4739 27.7739 31.2803 31.4154 28.1143 33.1427C26.8671 33.8228 25.4753 34.215 24.0001 34.215Z" fill="#282828"/>
</svg>
